<svg xmlns="http://www.w3.org/2000/svg" viewBox="0 0 32 32" id="manager"><path fill="#b386bc" d="M21.447 20.286l4.29 2.574a3.63 3.63 0 0 1 1.763 3.114v5.523h-23v-5.523a3.63 3.63 0 0 1 1.763-3.114l4.289-2.574"></path><path fill="#9868ac" d="M14.789 20.475h2.421v2.837h-2.421z"></path><path fill="#9868ac" d="M14.5 31.496l.895-8.184h1.21l.895 8.184"></path><path fill="#eadded" d="M19.156 20.475v-4.488h-6.318v4.488"></path><path fill="#cbaad0" d="M10.553 20.286l2.421 3.026L16 20.286l-3.813-1.816zM21.447 20.286l-2.421 3.026L16 20.286l3.813-1.816z"></path><path fill="#9868ac" d="M20.399 1.531L14.44.538a2.477 2.477 0 0 0-2.884 2.443v.067a2.044 2.044 0 0 0-1.999 2.471l.943 3.446 1.706-2.126V5.575h7.582v1.264L21.5 8.965l.97-4.489a2.528 2.528 0 0 0-2.071-2.945z"></path><path fill="#eadded" d="M19.788 6.839V5.575h-7.581v1.264L10.5 8.965l-.003-.01v2.348a5.5 5.5 0 1 0 11 0V8.961l-1.709-2.122z"></path><path fill="#8e5ba5" d="M15.997 17.303c-3.309 0-6-2.691-6-6V8.247h1v3.056c0 2.757 2.243 5 5 5s5-2.243 5-5V8.247h1v3.056c0 3.308-2.691 6-6 6z"></path><path fill="#8e5ba5" d="M12.338 15.987h1v2.487h-1zM18.656 15.987h1v2.487h-1zM21.5 9.465a.502.502 0 0 1-.39-.187l-1.712-2.126a.502.502 0 0 1-.11-.313v-.764h-6.582v.764a.502.502 0 0 1-.11.313L10.89 9.278a.502.502 0 0 1-.873-.181l-.943-3.446a2.55 2.55 0 0 1 .504-2.16 2.534 2.534 0 0 1 1.509-.901A2.969 2.969 0 0 1 14.522.044l5.958.993a3.003 3.003 0 0 1 1.979 1.245 3.01 3.01 0 0 1 .503 2.283l-.973 4.505a.502.502 0 0 1-.489.395zm-7.468-8.461a1.975 1.975 0 0 0-1.976 1.977c0 .276-.224.567-.5.567a1.54 1.54 0 0 0-1.201.573 1.536 1.536 0 0 0-.31 1.294l.678 2.473.983-1.225V5.575a.5.5 0 0 1 .5-.5h7.582a.5.5 0 0 1 .5.5v1.087l.944 1.173.749-3.465a2.004 2.004 0 0 0-.34-1.513 2.008 2.008 0 0 0-1.325-.833l-5.958-.993a2 2 0 0 0-.326-.027zM4.5 31.996a.5.5 0 0 1-.5-.5v-5.523c0-1.443.769-2.8 2.006-3.542l4.289-2.574a.5.5 0 0 1 .515.857l-4.289 2.574A3.148 3.148 0 0 0 5 25.973v5.523a.5.5 0 0 1-.5.5zM27.5 31.996a.5.5 0 0 1-.5-.5v-5.523a3.147 3.147 0 0 0-1.521-2.685l-4.29-2.574a.5.5 0 1 1 .515-.857l4.29 2.574A4.151 4.151 0 0 1 28 25.973v5.523a.5.5 0 0 1-.5.5z"></path><path fill="#8e5ba5" d="M9.5 31.996a.5.5 0 0 1-.5-.5v-2.342c0-.783-.291-1.533-.819-2.112l-.757-.829a.5.5 0 0 1 .739-.675l.757.829A4.13 4.13 0 0 1 10 29.154v2.342a.5.5 0 0 1-.5.5zM22.5 31.996a.5.5 0 0 1-.5-.5v-2.342a4.12 4.12 0 0 1 1.081-2.786l.757-.83a.5.5 0 0 1 .739.675l-.757.829a3.124 3.124 0 0 0-.82 2.112v2.342a.5.5 0 0 1-.5.5zM12.974 23.812l-.028-.001a.502.502 0 0 1-.363-.187l-2.421-3.026a.5.5 0 0 1 .019-.647l1.634-1.816a.499.499 0 0 1 .586-.117l3.813 1.816a.502.502 0 0 1 .139.805l-3.026 3.026a.496.496 0 0 1-.353.147zm-1.766-3.507l1.807 2.259 2.131-2.131-2.837-1.351-1.101 1.223z"></path><path fill="#8e5ba5" d="M19.026 23.812a.501.501 0 0 1-.354-.146l-3.026-3.026a.498.498 0 0 1 .139-.805l3.813-1.816a.499.499 0 0 1 .586.117l1.634 1.816a.5.5 0 0 1 .019.647l-2.421 3.026a.502.502 0 0 1-.363.187h-.027zm-2.172-3.379l2.131 2.131 1.807-2.259-1.101-1.223-2.837 1.351z"></path><path fill="#8e5ba5" d="M17.21 23.812h-2.42a.5.5 0 0 1-.5-.5v-1.513a.5.5 0 0 1 1 0v1.013h1.421v-1.013a.5.5 0 0 1 1 0v1.513a.501.501 0 0 1-.501.5z"></path><path fill="#8e5ba5" d="M17.5 31.996a.5.5 0 0 1-.497-.446l-.846-7.738h-.314l-.846 7.738a.5.5 0 0 1-.994-.108l.895-8.184a.5.5 0 0 1 .497-.446h1.211a.5.5 0 0 1 .497.446l.895 8.184a.5.5 0 0 1-.498.554z"></path></svg>