<svg xmlns="http://www.w3.org/2000/svg" data-name="Business Partnership" viewBox="0 0 128 128" id="business-partnership"><path fill="#fedd8e" d="M93.6,80.14a4.816,4.816,0,0,1-4.157,2.328,4.71,4.71,0,0,1-2.553-.735l.572.388A4.9,4.9,0,0,1,84.91,91.2a4.689,4.689,0,0,1-1.951-.419l.082.081a4.893,4.893,0,0,1,1.63,6.724l-.017.027a4.827,4.827,0,0,1-4.187,2.329,4.89,4.89,0,0,1-2.461-.664A4.9,4.9,0,0,1,74.9,107.97a4.962,4.962,0,0,1-2.584-.715L49.594,93.274,36.725,87.422l-4.36-11.245-7.19-4.085c.133-.163.265-.347.388-.531L42.731,44.64l3.441,1.869,11.316-7.088,9.529,2.523-3.81,14.288,28.8,17.157A4.908,4.908,0,0,1,93.6,80.14Z"></path><path fill="#fee9b4" d="M93.6,80.14a4.746,4.746,0,0,1-3.309,2.247,4.94,4.94,0,0,0-2.247-5.045L59.255,60.184l3.81-14.277-6.353-.552L45.386,52.443l-5.648-3.1,2.993-4.7,3.441,1.869,11.316-7.088,9.529,2.523-3.81,14.288,28.8,17.157A4.908,4.908,0,0,1,93.6,80.14Z"></path><path fill="#fdd367" d="M79.7,103.936a5.162,5.162,0,0,1-.643,1.726,4.94,4.94,0,0,1-6.741,1.593L49.594,93.274,36.725,87.422l-4.36-11.245-7.19-4.085c.133-.163.265-.347.388-.531l2.553-4,8.211,4.667,4.351,11.244,12.868,5.852L76.28,103.3a4.93,4.93,0,0,0,2.574.715A5.85,5.85,0,0,0,79.7,103.936Z"></path><path fill="#fee9b4" d="M102.078,63.871l-10.07,9.518-28.8-17.157L61.339,61.92a11,11,0,0,1-9.631,7.548l-4.923.122L54.2,50.655l12.827-8.7H78.394l6-3.472Z"></path><path fill="#fff3d9" d="M87.524,42.965l-5.872,3.391H70.275L57.458,55.047l-5.638,14.4a.216.216,0,0,1-.112.021l-4.923.132L54.2,50.645l12.817-8.7H78.394l6-3.462Z"></path><polygon fill="#fedd8e" points="102.078 63.871 92.028 73.389 87.167 70.499 98.943 59.367 102.078 63.871"></polygon><path fill="#fee9b4" d="M46.16,87.39l-3.34,5.69a1.508,1.508,0,0,1-2.06.53l-5.69-3.34a1.5,1.5,0,0,1-.53-2.05l3.34-5.7a1.5,1.5,0,0,1,2.05-.53l5.7,3.34A1.508,1.508,0,0,1,46.16,87.39Z"></path><rect width="9.607" height="9.607" x="43.723" y="87.942" fill="#fee9b4" rx="1.504" transform="rotate(-59.601 48.527 92.746)"></rect><rect width="9.607" height="9.607" x="51.903" y="92.888" fill="#fee9b4" rx="1.504" transform="rotate(-59.601 56.706 97.691)"></rect><rect width="9.611" height="9.611" x="60.126" y="97.798" fill="#fee9b4" rx="1.505" transform="rotate(-59.616 64.932 102.604)"></rect><path fill="#7bde9e" d="M42.976,44.252,25.563,71.561a5.08,5.08,0,0,1-7.006,1.553L1.021,61.931,23.888,26.073,41.423,37.246A5.084,5.084,0,0,1,42.976,44.252Z"></path><path fill="#a7e9bf" d="M42.97,44.25l-3.22,5.06a5.07,5.07,0,0,0-2.1-5.84L19.98,32.21l3.91-6.14L41.42,37.25h.01a5.067,5.067,0,0,1,1.541,7Z"></path><path fill="#50d27e" d="M28.28,67.3l-2.71,4.26a5.086,5.086,0,0,1-7.01,1.55L1.03,61.93l3.42-5.36L22.12,67.85A5.078,5.078,0,0,0,28.28,67.3Z"></path><path fill="#7ad1f9" d="M126.987,54.363,109.921,66.251a5.087,5.087,0,0,1-7.067-1.267L84.348,38.41a5.087,5.087,0,0,1,1.267-7.067L102.68,19.465Z"></path><path fill="#4cc3f7" d="M126.99,54.37,109.92,66.24l-.01.01a5.072,5.072,0,0,1-7.06-1.27h0l-3.43-4.92a5.079,5.079,0,0,0,6.54.63l17.13-11.92Z"></path><path fill="#a6e1fb" d="M106.37,24.77,89.25,36.7a5.054,5.054,0,0,0-1.65,6.36L84.35,38.4a5.067,5.067,0,0,1,1.26-7.05l17.07-11.89Z"></path><path fill="#333" d="M127.816,53.782l-24.3-34.907a1.023,1.023,0,0,0-.658-.422,1.008,1.008,0,0,0-.763.168L85.034,30.507a6.075,6.075,0,0,0-1.974,7.705l-4.911,2.833h-11l-9.427-2.5a.926.926,0,0,0-.715.112l-10.876,6.8-2.039-1.108a6.115,6.115,0,0,0-2.121-7.965L24.436,25.211a1.023,1.023,0,0,0-1.409.312L.16,61.381a1.022,1.022,0,0,0,.311,1.41l17.54,11.186a6.109,6.109,0,0,0,7.435-.693l6.193,3.527,3.391,8.762-1.276,2.186a2.388,2.388,0,0,0-.256,1.828,2.418,2.418,0,0,0,1.113,1.471l5.7,3.339a2.36,2.36,0,0,0,1.215.327,1.55,1.55,0,0,0,.215-.021A2.388,2.388,0,0,0,42.792,96l5.689,3.339a2.374,2.374,0,0,0,1.215.337c.071,0,.153-.03.225-.03a2.382,2.382,0,0,0,1.051,1.3l5.689,3.339a2.42,2.42,0,0,0,1.216.337c.081,0,.153-.02.224-.02a2.416,2.416,0,0,0,1.052,1.3l5.689,3.339a2.422,2.422,0,0,0,1.215.327,2.117,2.117,0,0,0,.613-.081,2.376,2.376,0,0,0,1.47-1.114l1.134-1.92,2.574,1.583a5.827,5.827,0,0,0,8.425-7.19A5.671,5.671,0,0,0,85.431,98.1a5.736,5.736,0,0,0,.715-4.381,6.037,6.037,0,0,0-.664-1.634,5.826,5.826,0,0,0,5.2-6.391h0a5.946,5.946,0,0,0-.122-.726,5.505,5.505,0,0,0-.644-1.6,5.826,5.826,0,0,0,5.3-6.3,5.69,5.69,0,0,0-.126-.8,5.845,5.845,0,0,0-1.69-2.931l8.452-7.984.156.224a6.028,6.028,0,0,0,3.915,2.523,6.149,6.149,0,0,0,1.1.1,6.038,6.038,0,0,0,3.47-1.1l17.066-11.9A1.021,1.021,0,0,0,127.816,53.782ZM24.7,71.012a4.062,4.062,0,0,1-5.593,1.241L2.431,61.618,24.2,27.483,40.872,38.106a4.067,4.067,0,0,1,1.242,5.6ZM41.934,92.7c-.02.02-.02.051-.041.071a.581.581,0,0,1-.214.123.717.717,0,0,1-.46-.062L35.531,89.5a.628.628,0,0,1-.276-.368.574.574,0,0,1,.061-.449l3.34-5.7a.6.6,0,0,1,.817-.214L45.161,86.1a.594.594,0,0,1,.256.7,1.087,1.087,0,0,0-.143.2Zm8.181,4.943c-.021.031-.021.051-.041.081a.533.533,0,0,1-.225.113.583.583,0,0,1-.449-.061l-5.689-3.34a.6.6,0,0,1-.214-.817l3.339-5.7a.613.613,0,0,1,.368-.265.4.4,0,0,1,.153-.021.521.521,0,0,1,.3.082l5.689,3.34a.588.588,0,0,1,.255.694,1.55,1.55,0,0,0-.143.2Zm8.17,4.943a.626.626,0,0,1-.031.082.6.6,0,0,1-.674.051l-5.688-3.34a.6.6,0,0,1-.215-.817l3.34-5.689a.558.558,0,0,1,.367-.275.8.8,0,0,1,.154-.021.609.609,0,0,1,.3.082L61.522,96a.626.626,0,0,1,.276.367.6.6,0,0,1-.02.327c-.051.072-.1.133-.153.2Zm11.632-.825h0l-3.339,5.7a.614.614,0,0,1-.368.266.574.574,0,0,1-.449-.061l-5.689-3.34a.571.571,0,0,1-.276-.357.6.6,0,0,1,.062-.46L63.2,97.818a.609.609,0,0,1,.511-.3.682.682,0,0,1,.306.082l5.689,3.34a.626.626,0,0,1,.276.367A.575.575,0,0,1,69.917,101.761ZM92.825,79.67a3.951,3.951,0,0,1-5.431,1.314h0l-.022-.013a.037.037,0,0,0-.03-.01L78.067,75.4a.907.907,0,0,0-.939,1.553h0l9.294,5.566a.03.03,0,0,1,.02.01l.551.357a4,4,0,0,1,1.314,5.5l-.014.023a3.952,3.952,0,0,1-3.38,1.88,3.763,3.763,0,0,1-1.563-.337L72.44,83.286a.923.923,0,0,0-1.256.306.911.911,0,0,0,.306,1.246l10.918,6.669a1.041,1.041,0,0,0,.163.133,3.994,3.994,0,0,1-4.085,6.86l-9.917-6.3a.907.907,0,0,0-1.014,1.5l.044.028L77.455,100a4,4,0,0,1-4.658,6.475l-2.6-1.6,1.287-2.195a2.415,2.415,0,0,0-.858-3.3l-5.688-3.34a2.467,2.467,0,0,0-1.451-.316,2.316,2.316,0,0,0-1.042-1.287L56.753,91.1a2.365,2.365,0,0,0-1.461-.317,2.373,2.373,0,0,0-1.031-1.3l-5.688-3.34a2.332,2.332,0,0,0-1.44-.306,2.384,2.384,0,0,0-1.052-1.3L40.392,81.2a2.383,2.383,0,0,0-1.828-.255,2.418,2.418,0,0,0-1.471,1.113l-.888,1.512-2.993-7.721a.879.879,0,0,0-.4-.46l-6.227-3.538L43.139,45.9l2.594,1.411a.923.923,0,0,0,.919-.031L57.641,40.4l7.231,1.92L53.689,49.9a.909.909,0,0,0-.337.418l-7.4,18.945a.9.9,0,0,0,.1.848.947.947,0,0,0,.766.388l4.963-.122A11.928,11.928,0,0,0,62.207,62.2l1.505-4.62L91.528,74.17a3.985,3.985,0,0,1,1.8,2.5A3.918,3.918,0,0,1,92.825,79.67Zm-.935-7.41L64.93,56.21l7.02-4.51a.914.914,0,0,0,.27-1.26.892.892,0,0,0-1.227-.288h0l-.013.008-.01.01-8.1,5.24a.923.923,0,0,0-.52.54l-1.87,5.68a10.07,10.07,0,0,1-8.79,6.93l-3.56.09,6.82-17.4L67.3,42.86H78.39a.926.926,0,0,0,.46-.12l5.19-3L100.8,63.82Zm17.438-6.853a4.037,4.037,0,0,1-5.622-.994h0l-.013-.019-18.5-26.575a4.042,4.042,0,0,1,1-5.628h0l.009-.006,16.228-11.3,23.129,33.231Z"></path></svg>